<svg width="44" height="31" viewBox="0 0 44 31" fill="none" xmlns="http://www.w3.org/2000/svg">
<rect width="44" height="31" fill="#E5E5E5"/>
<g id="Logo/Wordmark Dark">
<g id="Frame">
<g id="truck" clip-path="url(#clip0_0_1)">
<path id="Vector" d="M22 0H1.83333C0.820811 0 0 0.816422 0 1.82353V20.0588C0 21.0659 0.820811 21.8824 1.83333 21.8824H22C23.0125 21.8824 23.8333 21.0659 23.8333 20.0588V1.82353C23.8333 0.816422 23.0125 0 22 0Z" fill="#EAAA34"/>
<path id="Vector_2" d="M25.6667 5.47058H34.8333C35.75 5.47058 36.6667 5.92646 37.3083 6.74705L41.25 11.8529C41.8 12.5823 42.1667 13.4941 42.1667 14.4059V21.8823H25.6667V5.47058Z" fill="#EAAA34"/>
<path id="Vector_3" d="M40.7917 22.7941H1.375C0.615608 22.7941 0 23.4064 0 24.1618V24.6177C0 25.373 0.615608 25.9853 1.375 25.9853H40.7917C41.5511 25.9853 42.1667 25.373 42.1667 24.6177V24.1618C42.1667 23.4064 41.5511 22.7941 40.7917 22.7941Z" fill="#EAAA34"/>
<path id="Vector_4" d="M9.16667 30.6353C10.9892 30.6353 12.4667 29.1657 12.4667 27.3529C12.4667 25.5401 10.9892 24.0706 9.16667 24.0706C7.34413 24.0706 5.86667 25.5401 5.86667 27.3529C5.86667 29.1657 7.34413 30.6353 9.16667 30.6353Z" fill="#EAAA34"/>
<path id="Vector_5" d="M9.16668 28.8118C9.9767 28.8118 10.6333 28.1586 10.6333 27.3529C10.6333 26.5472 9.9767 25.8941 9.16668 25.8941C8.35666 25.8941 7.70001 26.5472 7.70001 27.3529C7.70001 28.1586 8.35666 28.8118 9.16668 28.8118Z" fill="white"/>
<path id="Vector_6" d="M33 30.6353C34.8226 30.6353 36.3 29.1657 36.3 27.3529C36.3 25.5401 34.8226 24.0706 33 24.0706C31.1775 24.0706 29.7 25.5401 29.7 27.3529C29.7 29.1657 31.1775 30.6353 33 30.6353Z" fill="#EAAA34"/>
<path id="Vector_7" d="M33 28.8118C33.81 28.8118 34.4667 28.1586 34.4667 27.3529C34.4667 26.5472 33.81 25.8941 33 25.8941C32.19 25.8941 31.5333 26.5472 31.5333 27.3529C31.5333 28.1586 32.19 28.8118 33 28.8118Z" fill="white"/>
</g>
</g>
</g>
<defs>
<clipPath id="clip0_0_1">
<rect width="44" height="31" fill="white"/>
</clipPath>
</defs>
</svg>
