<svg width="22" height="26" viewBox="0 0 22 26" fill="none" xmlns="http://www.w3.org/2000/svg">
<rect width="22" height="26" fill="#E5E5E5"/>
<g id="Logo/Wordmark Dark">
<g id="Frame">
<g id="speed" clip-path="url(#clip0_0_1)">
<path id="Vector" d="M20.3077 3.46667H6.76924C5.83461 3.46667 5.07693 4.24271 5.07693 5.20001C5.07693 6.1573 5.83461 6.93334 6.76924 6.93334H20.3077C21.2423 6.93334 22 6.1573 22 5.20001C22 4.24271 21.2423 3.46667 20.3077 3.46667Z" fill="#EAAA34"/>
<path id="Vector_2" d="M20.3077 11.2667H1.69231C0.757672 11.2667 0 12.0427 0 13C0 13.9573 0.757672 14.7333 1.69231 14.7333H20.3077C21.2423 14.7333 22 13.9573 22 13C22 12.0427 21.2423 11.2667 20.3077 11.2667Z" fill="#EAAA34"/>
<path id="Vector_3" d="M20.3077 19.0667H6.76924C5.83461 19.0667 5.07693 19.8427 5.07693 20.8C5.07693 21.7573 5.83461 22.5333 6.76924 22.5333H20.3077C21.2423 22.5333 22 21.7573 22 20.8C22 19.8427 21.2423 19.0667 20.3077 19.0667Z" fill="#EAAA34"/>
</g>
</g>
</g>
<defs>
<clipPath id="clip0_0_1">
<rect width="22" height="26" fill="white"/>
</clipPath>
</defs>
</svg>
